# xmcd CD database file
#
# Track frame offsets:
#	183
#	9483
#	20408
#	29033
#	46283
#	56883
#	69995
#	82270
#	95233
#	110608
#	123695
#	134070
#	144120
#	154458
#	169408
#	178295
#
# Disc length: 2533 seconds
#
# Revision: 1
# Processed by: cddbd v1.5.1PL0 Copyright (c) Steve Scherf et al.
# Submitted via: CDex 1.51
#
DISCID=f709e310
DTITLE=Country and Western - It's country time cd 1
DYEAR=1900
DGENRE=Country
TTITLE0=L. Flatt and E. Scrugs - Foggy Mountain Special
TTITLE1=Don Williams - Spend some time with me
TTITLE2=Conway Twitty - Blue is the way l feel
TTITLE3=Billie Jo Spears - For he good times
TTITLE4=willie Nelson - Blame it on the time
TTITLE5=Marty Robbins - Devil wormon
TTITLE6=Jim Reeves - Blue skies
TTITLE7=Willie Nelson - Everything but you
TTITLE8=Melba Montgomery - no charge
TTITLE9=L. Flatt and E. Scrugs - i'll go stepping too
TTITLE10=Patsy Cline - Pick me up (on your way down)
TTITLE11=Slim Withman - I can't stop loving you
TTITLE12=Carl Perkings - Doddy song bass
TTITLE13=Slim Whitman - Indian love call
TTITLE14=Johnny Cashv-vBlue Train
TTITLE15=Wanda Jackson - Right or wrong
EXTD=
EXTT0=
EXTT1=
EXTT2=
EXTT3=
EXTT4=
EXTT5=
EXTT6=
EXTT7=
EXTT8=
EXTT9=
EXTT10=
EXTT11=
EXTT12=
EXTT13=
EXTT14=
EXTT15=
PLAYORDER=
